<?xml version="1.0" encoding="iso-8859-1"?>
<!-- Uploaded to: SVG Repo, www.svgrepo.com, Generator: SVG Repo Mixer Tools -->
<!DOCTYPE svg PUBLIC "-//W3C//DTD SVG 1.1//EN" "http://www.w3.org/Graphics/SVG/1.1/DTD/svg11.dtd">
<svg fill="#000000" height="800px" width="800px" version="1.1" id="Capa_1" xmlns="http://www.w3.org/2000/svg" xmlns:xlink="http://www.w3.org/1999/xlink" 
	 viewBox="0 0 492.777 492.777" xml:space="preserve">
<g id="XMLID_70_">
	<path id="XMLID_72_" d="M484.899,323.597l-49.486-114.97h-79.456c-29.136,0-52.835-23.699-52.835-52.833v-3.942H189.628v3.935
		c0,14.111-5.498,27.376-15.481,37.358c-9.831,9.838-23.441,15.474-37.351,15.474H57.094L7.802,323.775
		c-12.788,29.883-9.715,64.194,8.186,91.328c17.894,27.125,48.227,43.454,80.733,43.454h299.342
		c32.535,0,62.896-16.361,80.78-43.544C494.736,387.839,497.76,353.489,484.899,323.597z M196.135,402.241
		c0,4.112-3.338,7.451-7.449,7.451h-24.684c-4.113,0-7.452-3.338-7.452-7.451v-24.683c0-4.113,3.338-7.451,7.452-7.451h24.684
		c4.111,0,7.449,3.338,7.449,7.451V402.241z M196.135,332.2c0,4.113-3.338,7.451-7.449,7.451h-24.684
		c-4.113,0-7.452-3.338-7.452-7.451v-24.69c0-4.113,3.338-7.451,7.452-7.451h24.684c4.111,0,7.449,3.338,7.449,7.451V332.2z
		 M196.135,262.152c0,4.113-3.338,7.451-7.449,7.451h-24.684c-4.113,0-7.452-3.338-7.452-7.451v-24.682
		c0-4.113,3.338-7.451,7.452-7.451h24.684c4.111,0,7.449,3.338,7.449,7.451V262.152z M266.183,402.241
		c0,4.112-3.338,7.451-7.449,7.451H234.05c-4.114,0-7.452-3.338-7.452-7.451v-24.69c0-4.113,3.338-7.451,7.452-7.451h24.683
		c4.111,0,7.449,3.338,7.449,7.451V402.241z M266.183,332.2c0,4.113-3.338,7.451-7.449,7.451h-24.69
		c-4.114,0-7.452-3.338-7.452-7.451v-24.69c0-4.113,3.338-7.451,7.452-7.451h24.69c4.111,0,7.449,3.338,7.449,7.451V332.2z
		 M266.183,262.152c0,4.113-3.338,7.451-7.449,7.451H234.05c-4.114,0-7.452-3.338-7.452-7.451v-24.69
		c0-4.113,3.338-7.451,7.452-7.451h24.683c4.111,0,7.449,3.338,7.449,7.451V262.152z M336.224,402.241
		c0,4.112-3.338,7.451-7.452,7.451h-24.681c-4.114,0-7.452-3.338-7.452-7.451v-24.683c0-4.113,3.338-7.451,7.452-7.451h24.681
		c4.114,0,7.452,3.338,7.452,7.451V402.241z M336.224,332.2c0,4.113-3.338,7.451-7.452,7.451h-24.681
		c-4.114,0-7.452-3.338-7.452-7.451v-24.69c0-4.113,3.338-7.451,7.452-7.451h24.681c4.114,0,7.452,3.338,7.452,7.451V332.2z
		 M336.224,262.152c0,4.113-3.338,7.451-7.452,7.451h-24.681c-4.114,0-7.452-3.338-7.452-7.451v-24.682
		c0-4.113,3.338-7.451,7.452-7.451h24.681c4.114,0,7.452,3.338,7.452,7.451V262.152z"/>
	<path id="XMLID_71_" d="M28.535,175.59h108.261c5.248,0,10.29-2.087,13.998-5.797c3.717-3.716,5.806-8.757,5.806-14.006
		l-0.008-36.963H336.15v36.97c0,10.935,8.871,19.805,19.806,19.805h108.275c10.935,0,19.806-8.87,19.806-19.805v-36.963v-0.007
		c0-46.713-106.383-84.604-237.633-84.604c-0.018,0-0.042,0-0.042,0C115.12,34.22,8.715,72.103,8.73,118.824h0.064L8.73,155.787
		C8.73,166.729,17.593,175.59,28.535,175.59z"/>
</g>
</svg>